<svg clip-rule="evenodd" fill-rule="evenodd" stroke-linejoin="round" stroke-miterlimit="2" viewBox="0 0 24 24" xmlns="http://www.w3.org/2000/svg"><path d="m0 0h24v24h-24z" fill="none"/><path d="m21.58 16.09-1.09-7.66c-.28-1.97-1.97-3.43-3.96-3.43h-9.06c-1.99 0-3.68 1.46-3.96 3.43l-1.09 7.66c-.22 1.54.97 2.91 2.52 2.91.68 0 1.32-.27 1.8-.75l2.26-2.25h6l2.25 2.25c.48.48 1.13.75 1.8.75 1.56 0 2.75-1.37 2.53-2.91zm-10.58-5.09h-2v2h-1v-2h-2v-1h2v-2h1v2h2zm4-1c-.55 0-1-.45-1-1s.45-1 1-1 1 .45 1 1-.45 1-1 1zm2 3c-.55 0-1-.45-1-1s.45-1 1-1 1 .45 1 1-.45 1-1 1z" fill="#fff" fill-rule="nonzero"/></svg>