<svg id="onscreen-gamepad-left" class="onscreen-gamepad" width="100%" height="100%" viewBox="0 0 120 232" version="1.1"
    xmlns="http://www.w3.org/2000/svg" xmlns:xlink="http://www.w3.org/1999/xlink" xml:space="preserve"
    xmlns:serif="http://www.serif.com/" style="fill-rule:evenodd;clip-rule:evenodd;">
    <g id="left_side_of_controller">
        <g transform="matrix(1,0,0,1,0,-0.867685)">
            <path fill="#000000db"
                d="M113,141.637c-6,29.375 -13.537,33.424 -35.28,43.583c-35.355,16.519 -33.138,57.105 -56.59,45.51c-14.36,-7.1 -21.13,-19.23 -21.13,-38.4c0,-24.92 11.42,-65.99 32.4,-119.1c9.93,-25.18 27.69,-34.56 44.64,-34.56c7.93,0 15.69,2.05 22.4,5.5c14.564,7.511 19.239,69.665 13.56,97.467Z" />
        </g>
        <g id="stick_button_left" style="pointer-events: none;" transform="matrix(1,0,0,1,-14.73,1.25)">
            <g id="stick_button_left_highlight" class="gamepad-btn-highlight" tabindex="0" style="pointer-events: none;"
                transform="matrix(0.622551,0,0,0.622551,61.2384,139.288)">
                <circle cx="55.5" cy="55.5" r="55.5" style="fill:#419bf3;" />
            </g>
            <g id="l_stick_right_direction_highlight" class="gamepad-arrow-highlight"
                transform="matrix(0.412655,0,0,0.672778,28.1146,52.0672)">
                <path d="M164,187.3l0,-12.6l61.653,0l0,-11.7l29.347,18l-29.347,18l0,-11.7l-61.653,-0Z"
                    style="fill:#ff00bf;" />
            </g>
            <g id="l_stick_down_direction_highlight" class="gamepad-arrow-highlight"
                transform="matrix(-4.80088e-16,0.412655,-0.672778,-7.82719e-16,217.563,106.165)">
                <path d="M164,187.3l0,-12.6l61.653,0l0,-11.7l29.347,18l-29.347,18l0,-11.7l-61.653,-0Z"
                    style="fill:#ff00bf;" />
            </g>
            <g id="l_stick_left_direction_highlight" class="gamepad-arrow-highlight"
                transform="matrix(-0.412655,-5.05356e-17,8.23915e-17,-0.672778,163.465,295.613)">
                <path d="M164,187.3l0,-12.6l61.653,0l0,-11.7l29.347,18l-29.347,18l0,-11.7l-61.653,-0Z"
                    style="fill:#ff00bf;" />
            </g>
            <g id="l_stick_up_direction_highlight" class="gamepad-arrow-highlight"
                transform="matrix(2.52678e-17,-0.412655,0.672778,4.11958e-17,-25.9828,241.515)">
                <path d="M164,187.3l0,-12.6l61.653,0l0,-11.7l29.347,18l-29.347,18l0,-11.7l-61.653,-0Z"
                    style="fill:#ff00bf;" />
            </g>
            <g id="stick_bg_left">
                <circle id="shadow10" cx="97.04" cy="175.08" r="26.46" style="fill-opacity:0.5;" />
                <circle id="Oval5" cx="95.79" cy="173.84" r="25.21"
                    style="fill:#fff;stroke:#000;stroke-width:2.49px;" />
            </g>

            <g transform="translate(95.79 173.84)">
                <!--container for stick so it's transform can start at zero zero -->
                <g id="stick_left">
                    <circle id="shadow11" cx="1.86" cy="1.87" r="17.12" style="fill-opacity:0.5;" />
                    <g id="Group-6">
                        <circle id="Oval-Copy" cx="0" cy="0" r="15.88"
                            style="fill:#fff;stroke:#000;stroke-width:2.49px;" />
                        <circle id="Oval-Copy-2" cx="0" cy="0" r="12.14"
                            style="fill:#fff;stroke:#000;stroke-width:1.25px;" />
                    </g>
                </g>
            </g>
        </g>
        <g id="select_button" transform="matrix(1,0,0,1,-28.46,12.0685)">
            <g id="select_highlight" class="gamepad-btn-highlight" transform="matrix(1,0,0,1,28.46,-12.0685)">
                <path
                    d="M87.667,141.171c-0.355,-1.15 -0.546,-2.372 -0.546,-3.637c0,-6.809 5.528,-12.337 12.336,-12.337c6.809,0 12.337,5.528 12.337,12.337c-0,5.281 -3.326,9.792 -7.996,11.549c-4.501,-3.939 -10.03,-6.729 -16.131,-7.912Z"
                    style="fill:#419bf3;" />
            </g>
            <path id="shadow9"
                d="M135.52,126.34c0,-1.96 -1.59,-3.55 -3.55,-3.55l-6.76,0c-1.947,0 -3.55,1.603 -3.55,3.55c0,1.947 1.603,3.55 3.55,3.55l6.76,0c1.947,0 3.55,-1.603 3.55,-3.55Z"
                style="fill:#bbb;fill-opacity:0.5;" />
            <path id="select"
                d="M134.17,125.67l-0,-0.01c-0,-1.574 -1.296,-2.87 -2.87,-2.87l-6.76,0c-1.577,0 -2.875,1.298 -2.875,2.875c-0,1.577 1.298,2.875 2.875,2.875l6.76,0c1.572,-0.005 2.865,-1.298 2.87,-2.87Z"
                style="fill:#fff;stroke:#000;stroke-width:1.35px;" />
        </g>
        <g id="d_pad">
            <g id="d_pad_left_highlight" class="gamepad-btn-highlight">
                <path
                    d="M58.987,114.918c-9.731,-0.21 -17.567,-8.176 -17.567,-17.958c-0,-9.913 8.048,-17.962 17.962,-17.962c0.135,0 0.269,0.002 0.404,0.005l17.553,17.553l0,0.009l-18.352,18.353Z"
                    style="fill:#419bf3;" />
            </g>
            <g id="d_pad_down_highlight" class="gamepad-btn-highlight">
                <path
                    d="M76.503,97.401c0.41,-0.028 0.823,-0.042 1.24,-0.042c0.135,0 0.269,0.002 0.404,0.005l17.553,17.553c0.003,0.135 0.005,0.269 0.005,0.404c-0,9.914 -8.049,17.962 -17.962,17.962c-9.914,0 -17.962,-8.048 -17.962,-17.962c-0,-0.416 0.014,-0.829 0.042,-1.24l16.68,-16.68Z"
                    style="fill:#419bf3;" />
            </g>
            <g id="d_pad_up_highlight" class="gamepad-btn-highlight">
                <path
                    d="M59.786,79.003c-0.004,-0.135 -0.005,-0.269 -0.005,-0.404c-0,-9.913 8.048,-17.962 17.962,-17.962c9.781,0 17.747,7.836 17.957,17.567l-18.352,18.353l-0.009,-0.001l-17.553,-17.553Z"
                    style="fill:#419bf3;" />
            </g>
            <g id="d_pad_right_highlight" class="gamepad-btn-highlight">
                <path
                    d="M94.864,79.04c0.41,-0.028 0.824,-0.042 1.24,-0.042c9.913,0 17.962,8.049 17.962,17.962c-0,9.914 -8.049,17.962 -17.962,17.962c-0.135,-0 -0.269,-0.002 -0.404,-0.005l-17.553,-17.553c-0.003,-0.135 -0.005,-0.269 -0.005,-0.404c0,-0.416 0.014,-0.829 0.042,-1.24l16.68,-16.68Z"
                    style="fill:#419bf3;" />
            </g>
            <g id="shadow14" transform="matrix(1,0,0,1,0,-9)">
                <path
                    d="M86.5,80.24c0.88,0 1.6,0.72 1.6,1.6l0,17.56l17.56,0c0.88,0 1.6,0.72 1.6,1.6l0,14.36c0,0.88 -0.72,1.6 -1.6,1.6l-17.56,0l0,17.56c0,0.88 -0.72,1.6 -1.6,1.6l-14.36,0c-0.878,0 -1.6,-0.722 -1.6,-1.6l0,-17.56l-17.56,0c-0.878,0 -1.6,-0.722 -1.6,-1.6l0,-14.36c0,-0.87 0.72,-1.6 1.6,-1.6l17.56,0l0,-17.56c0,-0.87 0.72,-1.6 1.6,-1.6l14.36,0Z"
                    style="fill:#9a9a9a;fill-opacity:0.5;" />
            </g>
            <g transform="matrix(1,0,0,1,0,-9)">
                <path
                    d="M84.9,78.64c0.88,0 1.6,0.72 1.6,1.6l0,17.56l17.57,0c0.87,0 1.6,0.72 1.6,1.6l0,14.37c0,0.87 -0.73,1.6 -1.6,1.6l-17.57,0l0,17.56c0,0.87 -0.72,1.6 -1.6,1.6l-14.35,0c-0.878,0 -1.6,-0.722 -1.6,-1.6l0,-17.57l-17.57,0c-0.878,0 -1.6,-0.722 -1.6,-1.6l0,-14.36c0,-0.88 0.72,-1.6 1.6,-1.6l17.56,0l0,-17.56c0,-0.88 0.72,-1.6 1.6,-1.6l14.36,0Z"
                    style="fill:#fff;stroke:#000;stroke-width:1.6px;stroke-linejoin:round;" />
            </g>
            <g id="d_pad_right" transform="matrix(1,0,0,1,0,-9)">
                <path d="M91.7,102.2l8.77,4.38l-8.78,4.4l0,-8.79l0.01,0.01Z"
                    style="fill:none;stroke:#000;stroke-width:1.6px;stroke-linejoin:round;" />
            </g>
            <g id="d_pad_up_left" transform="matrix(1,0,0,1,0,-9)">
                <path d="M63.75,110.97l-8.78,-4.39l8.78,-4.39l0,8.78Z"
                    style="fill:none;stroke:#000;stroke-width:1.6px;stroke-linejoin:round;" />
            </g>
            <g id="d_pad_down" transform="matrix(1,0,0,1,0,-9)">
                <path d="M82.11,120.55l-4.39,8.78l-4.39,-8.78l8.78,0Z"
                    style="fill:none;stroke:#000;stroke-width:1.6px;stroke-linejoin:round;" />
            </g>
            <g id="d_pad_up" transform="matrix(1,0,0,1,0,-9)">
                <path d="M73.33,92.61l4.4,-8.78l4.38,8.78l-8.78,0Z"
                    style="fill:none;stroke:#000;stroke-width:1.6px;stroke-linejoin:round;" />
            </g>
        </g>
        <g id="shoulder_trigger_left_back" transform="matrix(1,0,0,1.03029,0,0.00187503)">
            <g id="shoulder_trigger_back_left_highlight" class="gamepad-btn-highlight">
                <g transform="matrix(0.717435,-0.676143,-0.529646,-0.529431,19.5736,131.211)">
                    <g transform="matrix(0.717435,-0.916247,-0.696625,-0.943617,80.1321,145.499)">
                        <path d="M120.737,13.816l-1.6,20.387l-19.124,-7.244l20.724,-13.143Z" style="fill:#ff00bf;" />
                        <path d="M87.649,13.251c0,-0 4.707,-1.437 11.88,1.198c9.23,3.39 12.598,8.702 12.598,8.702"
                            style="fill:none;stroke:#ff00bf;stroke-width:8.5px;stroke-linecap:round;stroke-linejoin:round;stroke-miterlimit:1.5;" />
                    </g>
                </g>
                <g transform="matrix(-0.693196,-8.48921e-17,4.01856e-17,-0.32814,246.967,43.9089)">
                    <path
                        d="M287,30l-75.931,0c-2.194,0 -4,1.806 -4,4c0,0.313 0.037,0.625 0.11,0.93l21.84,91.394c1.072,4.486 5.114,7.676 9.726,7.676l32.255,0c11.046,0 20,-8.954 20,-20l-0,-80c-0,-2.194 -1.806,-4 -4,-4Z"
                        style="fill:#419bf3;" />
                </g>
            </g>
            <path id="shadow4"
                d="M54.74,33.57l37.84,0c1.52,0 2.77,-0.6 2.77,-1.32c0,-0.1 -0.02,-0.2 -0.07,-0.3l-10.9,-22.91c-0.7,-1.5 -3.53,-2.57 -6.75,-2.57l-11.8,0c-7.66,0 -13.86,2.96 -13.86,6.61l0,19.18c0,0.72 1.25,1.32 2.77,1.32l0,-0.01Z"
                style="fill-opacity:0.5;" />
            <path id="shoulder_trigger_back_left"
                d="M52.28,31.21c-0.38,0 -0.73,-0.07 -0.98,-0.19c-0.25,-0.12 -0.4,-0.28 -0.4,-0.47l0,-19.18c0,-1.64 1.4,-3.13 3.65,-4.2c2.783,-1.212 5.795,-1.809 8.83,-1.75l11.79,0c1.26,0 2.48,0.2 3.46,0.58c0.98,0.38 1.67,0.9 1.95,1.48l10.9,22.93c0.03,0.33 -0.13,0.5 -0.38,0.61c-0.26,0.13 -0.6,0.2 -0.98,0.2l-37.84,0l0,-0.01Z"
                style="fill:#fff;stroke:#000;stroke-width:2.17px;" />
        </g>
        <g id="shoulder_button_left_front" transform="matrix(1,0,0,1,-2,-0.147685)">
            <g id="shoulder_btn_front_left_highlight" class="gamepad-btn-highlight"
                transform="matrix(0.574037,1.20212e-16,-1.40598e-16,0.490804,-55.4768,35.2461)">
                <path
                    d="M283,0l-103,0c-5.523,0 -10,4.477 -10,10l0,32c0,2.194 1.806,4 4,4l115,0c2.194,0 4,-1.806 4,-4l0,-32c0,-5.523 -4.477,-10 -10,-10Z"
                    style="fill:#419bf3;" />
            </g>
            <path id="shadow5"
                d="M103.03,37.95l-47.65,0c-3.149,0 -5.74,2.591 -5.74,5.74l0,6.9c0.005,1.258 1.042,2.29 2.3,2.29l54.53,0c1.262,0 2.3,-1.038 2.3,-2.3l0,-6.88c0,-3.149 -2.591,-5.74 -5.74,-5.74l0,-0.01Z"
                style="fill-opacity:0.5;" />
            <path id="shoulder_btn_front_left"
                d="M101.23,38.3l0.02,-0c2.513,-0 4.58,2.067 4.58,4.58l0,6.92c0,0.625 -0.515,1.14 -1.14,1.14l-54.54,-0c-0.631,-0 -1.15,-0.519 -1.15,-1.15l-0,-6.9c-0,-2.513 2.067,-4.58 4.58,-4.58l47.65,-0l0,-0.01Z"
                style="fill:#fff;stroke:#000;stroke-width:2.3px;" />
        </g>
    </g>
</svg>
