<svg id="onscreen-gamepad-right" class="onscreen-gamepad" width="100%" height="100%" viewBox="172 0 120 232"
    version="1.1" xmlns="http://www.w3.org/2000/svg" xmlns:xlink="http://www.w3.org/1999/xlink" xml:space="preserve"
    xmlns:serif="http://www.serif.com/" style="fill-rule:evenodd;clip-rule:evenodd;">
    <g id="right_side_of_controller">
        <g transform="matrix(-1,0,0,1,290,-0.867685)">
            <path fill="#000000db"
                d="M113,141.637c-6,29.375 -13.537,33.424 -35.28,43.583c-35.355,16.519 -33.138,57.105 -56.59,45.51c-14.36,-7.1 -21.13,-19.23 -21.13,-38.4c0,-24.92 11.42,-65.99 32.4,-119.1c9.93,-25.18 27.69,-34.56 44.64,-34.56c7.93,0 15.69,2.05 22.4,5.5c14.564,7.511 19.239,69.665 13.56,97.467Z" />
        </g>
        <g id="stick_button_right" style="pointer-events: none;" transform="matrix(1,0,0,1,16.08,0)">
            <g id="stick_button_right_highlight" style="pointer-events: none;" class="gamepad-btn-highlight"
                transform="matrix(0.622551,0,0,0.622551,74.2846,141.118)">
                <circle cx="188.5" cy="55.5" r="55.5" style="fill:#419bf3;" />
            </g>
            <g id="r_stick_right_direction_highlight" class="gamepad-arrow-highlight"
                transform="matrix(0.412655,0,0,0.672778,123.96,53.3372)">
                <path d="M164,187.3l0,-12.6l61.653,0l0,-11.7l29.347,18l-29.347,18l0,-11.7l-61.653,-0Z"
                    style="fill:#ff00bf;" />
            </g>
            <g id="r_stick_down_direction_highlight" class="gamepad-arrow-highlight"
                transform="matrix(-4.80088e-16,0.412655,-0.672778,-7.82719e-16,313.408,107.435)">
                <path d="M164,187.3l0,-12.6l61.653,0l0,-11.7l29.347,18l-29.347,18l0,-11.7l-61.653,-0Z"
                    style="fill:#ff00bf;" />
            </g>
            <g id="r_stick_left_direction_highlight" class="gamepad-arrow-highlight"
                transform="matrix(-0.412655,-5.05356e-17,8.23915e-17,-0.672778,259.311,296.883)">
                <path d="M164,187.3l0,-12.6l61.653,0l0,-11.7l29.347,18l-29.347,18l0,-11.7l-61.653,-0Z"
                    style="fill:#ff00bf;" />
            </g>
            <g id="r_stick_up_direction_highlight" class="gamepad-arrow-highlight"
                transform="matrix(2.52678e-17,-0.412655,0.672778,4.11958e-17,69.8626,242.785)">
                <path d="M164,187.3l0,-12.6l61.653,0l0,-11.7l29.347,18l-29.347,18l0,-11.7l-61.653,-0Z"
                    style="fill:#ff00bf;" />
            </g>
            <g id="stick_bg_right">
                <circle id="shadow12" cx="192.96" cy="176.33" r="26.46" style="fill-opacity:0.5;" />
                <circle id="Oval6" cx="191.72" cy="175.08" r="25.21"
                    style="fill:#fff;stroke:#000;stroke-width:2.49px;" />
            </g>
            <g transform="translate(191.72 175.08)">
                <!--container for stick so it's transform can start at zero zero -->
                <g id="stick_right">
                    <circle id="shadow13" cx="1.86" cy="1.87" r="17.12" style="fill-opacity:0.5;" />
                    <g id="Group-61">
                        <circle id="Oval-Copy1" cx="0" cy="0" r="15.88"
                            style="fill:#fff;stroke:#000;stroke-width:2.49px;" />
                        <circle id="Oval-Copy-21" cx="0" cy="0" r="12.14"
                            style="fill:#fff;stroke:#000;stroke-width:1.25px;" />
                    </g>
                </g>
            </g>
        </g>
        <g id="start_button" transform="matrix(1,0,0,1,28.0925,12.5493)">
            <g id="start_highlight" class="gamepad-btn-highlight" transform="matrix(1,0,0,1,-28.0925,-12.5493)">
                <path
                    d="M185.575,149.151c-4.767,-1.707 -8.181,-6.266 -8.181,-11.617c-0,-6.809 5.528,-12.337 12.336,-12.337c2.48,0 4.79,0.733 6.724,1.994c1.033,2.873 2.859,5.369 5.213,7.221c0.261,0.998 0.399,2.044 0.399,3.122c0,1.463 -0.255,2.868 -0.724,4.172c-5.925,1.107 -11.319,3.727 -15.767,7.445Z"
                    style="fill:#419bf3;" />
            </g>
            <path id="shadow8"
                d="M170.34,126.34c0,-1.947 -1.603,-3.55 -3.55,-3.55l-6.76,0c-1.947,0 -3.55,1.603 -3.55,3.55c0,1.947 1.603,3.55 3.55,3.55l6.76,0c1.947,0 3.55,-1.603 3.55,-3.55Z"
                style="fill:#bbb;fill-opacity:0.5;" />
            <path id="start"
                d="M168.98,125.67l0,-0.01c0,-1.574 -1.296,-2.87 -2.87,-2.87l-6.76,0c-1.577,0 -2.875,1.298 -2.875,2.875c0,1.577 1.298,2.875 2.875,2.875l6.76,0c1.574,0 2.87,-1.296 2.87,-2.87Z"
                style="fill:#fff;stroke:#000;stroke-width:1.35px;" />
        </g>
        <g id="button_1" transform="matrix(1,0,0,1,0,-7.35)">
            <g id="button_1_highlight" class="gamepad-btn-highlight" tabindex="0" transform="matrix(1,0,0,1,0,7.35)">
                <path
                    d="M206.127,106.592c1.715,-0.623 3.566,-0.963 5.496,-0.963c1.93,0 3.781,0.34 5.496,0.963l9.655,9.656c0.623,1.715 0.963,3.566 0.963,5.496c0,8.894 -7.22,16.114 -16.114,16.114c-8.894,0 -16.115,-7.22 -16.115,-16.114c0,-1.93 0.34,-3.781 0.963,-5.496l9.656,-9.656Z"
                    style="fill:#419bf3;" />
            </g>
            <g id="Group">
                <circle id="shadow" cx="212.35" cy="129.12" r="10.43" style="fill:#00ff04;fill-opacity:0.5;" />
                <circle id="Oval" cx="211.59" cy="128.37" r="9.67"
                    style="fill:#00ff04;stroke:#000;stroke-width:1.52px;" />
            </g>
            <path id="Line" d="M208.37,125.14l6.82,6.83"
                style="fill:none;stroke:#000;stroke-width:1.52px;stroke-linecap:round;stroke-linejoin:round;" />
            <path id="Line-Copy" d="M208.37,131.97l6.82,-6.83"
                style="fill:none;stroke:#000;stroke-width:1.52px;stroke-linecap:round;stroke-linejoin:round;" />
        </g>
        <g id="button_2" transform="matrix(1,0,0,1,0,-7.35)">
            <g id="button_2_highlight" class="gamepad-btn-highlight" tabindex="0" transform="matrix(1,0,0,1,0,7.35)">
                <path
                    d="M226.981,85.738c1.715,-0.623 3.566,-0.963 5.496,-0.963c8.894,0 16.114,7.221 16.114,16.115c0,8.894 -7.22,16.114 -16.114,16.114c-2.186,0 -4.271,-0.436 -6.173,-1.226l-8.715,-8.715c-0.79,-1.902 -1.227,-3.987 -1.227,-6.173c0,-1.93 0.34,-3.781 0.963,-5.496l9.656,-9.656Z"
                    style="fill:#419bf3;" />
            </g>
            <g id="Group1">
                <circle id="shadow1" cx="233.2" cy="108.27" r="10.43" style="fill:#ff0009;fill-opacity:0.5;" />
                <circle id="Oval1" cx="232.45" cy="107.51" r="9.67"
                    style="fill:#ff0009;stroke:#000;stroke-width:1.52px;" />
            </g>
            <circle id="Oval2" cx="232.45" cy="107.51" r="3.98" style="fill:none;stroke:#000;stroke-width:1.52px;" />
        </g>
        <g id="button_3" transform="matrix(1,0,0,1,0,-7.35)">
            <g id="button_3_highlight" class="gamepad-btn-highlight" tabindex="0" transform="matrix(1,0,0,1,0,7.35)">
                <path
                    d="M196.942,115.778c-1.902,0.79 -3.987,1.226 -6.173,1.226c-8.894,0 -16.115,-7.22 -16.115,-16.114c0,-8.894 7.221,-16.115 16.115,-16.115c1.93,0 3.781,0.34 5.495,0.963l9.656,9.656c0.623,1.715 0.963,3.566 0.963,5.496c0,2.186 -0.436,4.271 -1.226,6.173l-8.715,8.715Z"
                    style="fill:#419bf3;" />
            </g>
            <g id="Group2">
                <circle id="shadow2" cx="191.5" cy="108.27" r="10.43" style="fill:#48c0fb;fill-opacity:0.5;" />
                <circle id="Oval3" cx="190.74" cy="107.51" r="9.67"
                    style="fill:#48c0fb;stroke:#000;stroke-width:1.52px;" />
            </g>
            <path id="Rectangle"
                d="M194.34,107.7c0,-1.873 -1.542,-3.415 -3.415,-3.415c-1.873,0 -3.415,1.542 -3.415,3.415c0,1.873 1.542,3.415 3.415,3.415c1.873,0 3.415,-1.542 3.415,-3.415Z"
                style="fill:none;stroke:#000;stroke-width:1.52px;" />
        </g>
        <g id="button_4" transform="matrix(1,0,0,1,0,-7.35)">
            <g id="button_4_highlight" class="gamepad-btn-highlight" tabindex="0" transform="matrix(1,0,0,1,0,7.35)">
                <path
                    d="M196.735,86.209c-0.79,-1.902 -1.227,-3.987 -1.227,-6.173c0,-8.894 7.221,-16.115 16.115,-16.115c8.894,0 16.114,7.221 16.114,16.115c0,2.186 -0.436,4.271 -1.226,6.173l-8.715,8.715c-1.902,0.79 -3.987,1.226 -6.173,1.226c-2.186,0 -4.271,-0.436 -6.173,-1.226l-8.715,-8.715Z"
                    style="fill:#419bf3;" />
            </g>
            <g id="Group3">
                <circle id="shadow3" cx="212.35" cy="87.42" r="10.43" style="fill:#fff000;fill-opacity:0.5;" />
                <circle id="Oval4" cx="211.59" cy="86.66" r="9.67"
                    style="fill:#fff000;stroke:#000;stroke-width:1.52px;" />
            </g>
            <path id="Path" d="M207.61,90.2l4.1,-8.28l4.09,8.27l-8.19,0l0,0.01Z"
                style="fill:none;stroke:#000;stroke-width:1.52px;stroke-linejoin:round;" />
        </g>
        <g id="shoulder_trigger_right_back">
            <g id="shoulder_trigger_back_right_highlight" class="gamepad-btn-highlight">
                <g transform="matrix(-0.872799,-0.847483,0.529646,-0.545468,293.988,156.439)">
                    <g transform="matrix(-0.589727,0.916247,-0.572621,-0.943617,262.953,-121.747)">
                        <path d="M191.258,25.898l-18.796,8.056l-2.471,-20.301l21.267,12.245Z" style="fill:#ff00bf;" />
                        <path
                            d="M205.127,14.32c0,-0 -5.386,-2.097 -13.074,0.038c-9.892,2.748 -13.061,8.253 -13.061,8.253"
                            style="fill:none;stroke:#ff00bf;stroke-width:8.5px;stroke-linecap:round;stroke-linejoin:round;stroke-miterlimit:1.5;" />
                    </g>
                </g>
                <g transform="matrix(-0.69318,-8.489e-17,4.14029e-17,-0.33808,246.673,45.2409)">
                    <path
                        d="M5.797,30l75.933,0c2.194,0 4,1.806 4,4c-0,0.313 -0.037,0.625 -0.11,0.93l-21.84,91.394c-1.072,4.487 -5.116,7.677 -9.729,7.676l-32.254,0c-11.045,0 -20,-8.954 -20,-20l-0,-80c-0,-2.194 1.806,-4 4,-4Z"
                        style="fill:#419bf3;" />
                </g>
            </g>
            <path id="shadow6"
                d="M237,33.57l-37.83,0c-1.52,0 -2.78,-0.6 -2.78,-1.32c0,-0.1 0.03,-0.2 0.07,-0.3l10.9,-22.92c0.71,-1.5 3.53,-2.57 6.76,-2.57l11.8,0c7.65,0 13.86,2.96 13.86,6.61l0,19.18c0,0.72 -1.25,1.32 -2.78,1.32Z"
                style="fill-opacity:0.5;" />
            <path id="shoulder_trigger_back_right"
                d="M197.71,31.21c-0.37,0 -0.72,-0.06 -0.98,-0.19c-0.25,-0.12 -0.4,-0.28 -0.4,-0.47l10.92,-23.07c0.28,-0.58 0.97,-1.1 1.95,-1.48c0.99,-0.37 2.2,-0.58 3.46,-0.58l11.8,0c3.44,0 6.56,0.67 8.82,1.75c2.34,1.11 3.66,2.63 3.65,4.2l0,19.18c0,0.19 -0.15,0.35 -0.4,0.47c-0.26,0.13 -0.62,0.2 -0.98,0.2l-37.85,0l0.01,-0.01Z"
                style="fill:#fff;stroke:#000;stroke-width:2.17px;" />
        </g>
        <g id="shoulder_button_right_front" transform="matrix(1,0,0,0.901744,4,3.97791)">
            <g id="shoulder_btn_front_right_highlight" class="gamepad-btn-highlight"
                transform="matrix(0.574037,1.21771e-16,-1.40598e-16,0.497166,175.696,34.5115)">
                <path
                    d="M10,0l103,0c5.523,0 10,4.477 10,10l0,32c0,2.194 -1.806,4 -4,4l-115,0c-2.194,0 -4,-1.806 -4,-4l0,-32c0,-5.523 4.477,-10 10,-10Z"
                    style="fill:#419bf3;" />
            </g>
            <path id="shadow7"
                d="M188.97,37.51l47.65,0c3.149,0 5.74,2.591 5.74,5.74l0,6.89c0,1.262 -1.038,2.3 -2.3,2.3l-54.53,0c-1.262,0 -2.3,-1.038 -2.3,-2.3l0,-6.89c0,-3.149 2.591,-5.74 5.74,-5.74Z"
                style="fill-opacity:0.5;" />
            <path id="shoulder_btn_front_right"
                d="M187.16,37.86l47.68,0c2.513,0 4.58,2.067 4.58,4.58l0,6.91c0,0.625 -0.515,1.14 -1.14,1.14l-54.55,0c-0.631,0 -1.15,-0.519 -1.15,-1.15l0,-6.9c0,-2.513 2.067,-4.58 4.58,-4.58Z"
                style="fill:#fff;stroke:#000;stroke-width:2.3px;" />
        </g>

    </g>
</svg>
